<svg width="137" height="227" fill="none" xmlns="http://www.w3.org/2000/svg"><g clip-path="url(#clip0)"><path d="M63.731 77.905a4.413 4.413 0 01-4.276-5.518c3.044-11.74 5.268-19.6 7.232-26.535 3.505-12.38 5.817-20.56 9.708-40.102a4.415 4.415 0 018.658 1.722c-3.959 19.883-6.312 28.196-9.874 40.782-1.95 6.892-4.161 14.704-7.181 26.349a4.415 4.415 0 01-4.267 3.302z" fill="#F74734"/><path d="M60.095 78.212a4.412 4.412 0 01-4.026-2.601c-4.94-10.972-8.438-18.297-11.52-24.763-5.63-11.804-9.351-19.602-16.604-38.535a4.409 4.409 0 012.543-5.694 4.415 4.415 0 015.699 2.54c7.13 18.609 10.79 26.282 16.33 37.893 3.105 6.506 6.623 13.882 11.6 24.939a4.407 4.407 0 01-2.214 5.829 4.347 4.347 0 01-1.808.392z" fill="#F74734"/><path d="M62.95 82.536a4.414 4.414 0 01-4.392-4.022c-3.742-42.325-6.15-72.768-6.173-73.069A4.41 4.41 0 0156.438.702a4.416 4.416 0 014.747 4.05c.024.3 2.428 30.703 6.166 72.987a4.412 4.412 0 01-4.402 4.797z" fill="#F74734"/><path d="M56.27 75.05l11.052-.938c2.54-.216 4.443-2.466 4.226-5.004a4.645 4.645 0 00-5.008-4.222l-11.052.937c-2.539.217-4.442 2.467-4.225 5.004.213 2.537 2.468 4.439 5.008 4.222z" fill="#FFBD17"/><path d="M116.877 183.155c-14.258 0-24.863-4.781-31.868-9.517-10.337-6.987-15.203-15.289-15.406-15.638a3.593 3.593 0 011.317-4.909 3.6 3.6 0 014.91 1.309c.077.132 4.435 7.44 13.472 13.462 12.044 8.026 26.376 10.13 42.602 6.246a3.592 3.592 0 014.334 2.659 3.59 3.59 0 01-2.662 4.331c-6.033 1.444-11.603 2.057-16.699 2.057zm-112.575.336a3.581 3.581 0 01-2.303-.836 3.592 3.592 0 01-.457-5.061c15.545-18.615 30.968-24.218 41.166-25.642 11.323-1.58 18.94 1.468 19.263 1.597a3.588 3.588 0 011.963 4.685 3.596 3.596 0 01-4.672 1.97c-.105-.041-6.498-2.501-15.989-1.076-12.676 1.904-25.198 9.879-36.205 23.063a3.583 3.583 0 01-2.766 1.3zM34.775 76.396c11.23-6.032 41.274-8.58 53.362-4.523 28.543 9.578 25.415 49.003 12.958 59.481-6.999 5.887-16.266 9.331-23.556 11.263-2.814.744-4.154 3.955-2.719 6.486l.295.521-13.23 1.12c1.477-2.809-.378-6.215-3.54-6.496-7.514-.674-18.42-2.409-26.32-7.041-14.041-8.231-23.772-46.564 2.75-60.811zm32.063 91.67l-7.06 2.057 15.046 51.564 7.06-2.057-15.046-51.564z" fill="#D65FF2"/><path d="M46.605 207.488l-23.156-3.999 1.253-7.24 19.06 3.292 22.688-26.228 5.567 4.808-25.412 29.367z" fill="#D65FF2"/><path d="M87.98 223.372l-11.926 3.474-3.331-11.421 7.618-2.22s.975 4.747 7.612 6.645c1.774.507 1.797 3.004.027 3.522zm-67.473-15.959l2.451-11.977 11.665 2.385-1.555 7.586s-4.655-1.354-9.433 3.623c-1.276 1.33-3.497.19-3.128-1.617z" fill="#383838"/><path d="M126.029 186.119a2.834 2.834 0 01-2.678-1.905l-2.915-8.383a2.835 2.835 0 015.356-1.861l2.915 8.384a2.83 2.83 0 01-1.747 3.606 2.812 2.812 0 01-.931.159z" fill="#32F4F9"/><path d="M87.612 120.806c4.172-.354 7.387-2.607 7.18-5.033-.205-2.426-3.754-4.106-7.926-3.752-4.172.353-7.387 2.606-7.18 5.032.205 2.426 3.754 4.106 7.926 3.753z" fill="#DC78F4"/><path d="M96.196 95.295a.586.586 0 01-.142-1.157l4.144-1.038a.589.589 0 01.288 1.14l-4.145 1.038a.548.548 0 01-.145.017zM80.626 83.69c-.024 0-.051 0-.078-.007a.59.59 0 01-.508-.66l.521-4.009a.59.59 0 011.168.152l-.521 4.01a.588.588 0 01-.582.514zm9.768 3.095a.588.588 0 01-.427-.995l2.929-3.085a.59.59 0 01.853.812l-2.929 3.086a.585.585 0 01-.426.183z" fill="#A42FC1"/><path d="M46.045 124.33c4.172-.353 7.387-2.607 7.181-5.033-.205-2.426-3.754-4.106-7.926-3.752-4.172.353-7.387 2.607-7.181 5.033.206 2.426 3.755 4.106 7.926 3.752z" fill="#DC78F4"/><path d="M32.312 100.711h-.044l-4.26-.328a.589.589 0 11.092-1.174l4.26.328a.588.588 0 01-.048 1.174zm13.39-14.061a.589.589 0 01-.562-.415l-1.192-3.864a.587.587 0 111.124-.345l1.192 3.864a.586.586 0 01-.562.76zm-9.106 4.696a.574.574 0 01-.352-.118l-3.41-2.548a.585.585 0 01-.118-.822.59.59 0 01.823-.118l3.41 2.547c.26.197.314.562.118.822a.582.582 0 01-.47.237z" fill="#A42FC1"/><path d="M80.645 84.85c3.826-.034 7.263 1.653 9.596 4.329a6.276 6.276 0 00-1.378-.146 6.232 6.232 0 104.222 10.86c-1.141 5.712-6.16 10.039-12.223 10.093-6.945.058-12.626-5.519-12.684-12.459-.06-6.94 5.521-12.615 12.467-12.676z" fill="#fff"/><path d="M82.677 95.32a6.232 6.232 0 016.184-6.284c.472-.005.933.05 1.378.146a12.504 12.504 0 013.092 8.131c.007.886-.08 1.748-.245 2.584a6.237 6.237 0 01-10.409-4.576z" fill="#1E1E1E"/><path d="M48.06 87.628c3.84.02 7.263 1.762 9.557 4.486a6.2 6.2 0 00-1.475-.19 6.232 6.232 0 10-.067 12.464 6.2 6.2 0 004.23-1.633c-1.186 5.739-6.29 10.038-12.379 10.006-6.945-.039-12.548-5.693-12.51-12.634.037-6.94 5.698-12.534 12.644-12.499z" fill="#fff"/><path d="M49.87 98.125a6.232 6.232 0 016.27-6.199c.51.002 1 .073 1.475.191a12.49 12.49 0 012.954 8.147c-.006.856-.098 1.69-.262 2.494a6.22 6.22 0 01-4.23 1.633c-3.449-.022-6.225-2.827-6.208-6.266z" fill="#1E1E1E"/><path d="M59.604 149.711l-1.165-.135c-1.412-.163-2.444-1.276-2.302-2.487.139-1.211 1.398-2.06 2.81-1.894l17.488 2.023c1.412.162 2.445 1.275 2.303 2.486-.139 1.212-1.399 2.061-2.81 1.895l-.969-.112c2.851 4.798 11.702 21.068 12.284 39.003l-23.617-2.73-1.283-.149-23.617-2.731c4.67-17.329 17.004-31.149 20.878-35.169z" fill="#FFBD17"/><path d="M81.647 189.844l2.1 7.216-42.903-4.959 3.43-6.581 37.373 4.324z" fill="#BD2A94"/><path d="M56.778 112.258c1.991-1.41 3.935-1.285 5.496-.693a7.209 7.209 0 006.193-.525c1.435-.845 3.331-1.299 5.532-.24 5.011 2.406-.091 11.503-7.564 12.241v.003c-.024.004-.044 0-.068.004-.023.003-.044.006-.067.006v-.003c-7.49.531-14.052-7.579-9.522-10.793z" fill="#1E1E1E"/><path d="M61.059 111.23c.423.074.83.189 1.208.335a7.209 7.209 0 006.193-.525 6.107 6.107 0 011.95-.754c-.494 1.847-1.669 4.635-4.27 4.855-2.528.213-4.208-2.186-5.081-3.911z" fill="#fff"/><path d="M66.379 118.183c2.817-.24 5.431.108 7.429.869-1.734 2.03-4.361 3.688-7.375 3.986v.003c-.024.004-.044 0-.068.004-.023.003-.043.007-.067.007v-.004c-2.865.203-5.594-.859-7.619-2.429 1.873-1.255 4.602-2.172 7.7-2.436z" fill="#2ED8D8"/><path d="M11.385 179.944c-.65 0-1.303-.223-1.838-.676l-6.755-5.765a2.83 2.83 0 01-.315-3.993 2.834 2.834 0 013.995-.314l6.755 5.761a2.83 2.83 0 01.315 3.993 2.824 2.824 0 01-2.157.994z" fill="#32F4F9"/></g><defs><clipPath id="clip0"><path fill="#fff" d="M.707.688h135.63v226.159H.707z"/></clipPath></defs></svg>